<?xml version="1.0" encoding="UTF-8" standalone="no"?>
<!-- Created with Inkscape (http://www.inkscape.org/) -->

<svg
   xmlns:dc="http://purl.org/dc/elements/1.1/"
   xmlns:cc="http://creativecommons.org/ns#"
   xmlns:rdf="http://www.w3.org/1999/02/22-rdf-syntax-ns#"
   xmlns:svg="http://www.w3.org/2000/svg"
   xmlns="http://www.w3.org/2000/svg"
   xmlns:sodipodi="http://sodipodi.sourceforge.net/DTD/sodipodi-0.dtd"
   xmlns:inkscape="http://www.inkscape.org/namespaces/inkscape"
   version="1.1"
   id="svg2"
   xml:space="preserve"
   width="480"
   height="160.49333"
   viewBox="0 0 480 160.49333"
   sodipodi:docname="logo--dark.svg"
   inkscape:version="0.92.5 (2060ec1f9f, 2020-04-08)"><metadata
     id="metadata8"><rdf:RDF><cc:Work
         rdf:about=""><dc:format>image/svg+xml</dc:format><dc:type
           rdf:resource="http://purl.org/dc/dcmitype/StillImage" /><dc:title></dc:title></cc:Work></rdf:RDF></metadata><defs
     id="defs6" /><sodipodi:namedview
     pagecolor="#ffffff"
     bordercolor="#666666"
     borderopacity="1"
     objecttolerance="10"
     gridtolerance="10"
     guidetolerance="10"
     inkscape:pageopacity="0"
     inkscape:pageshadow="2"
     inkscape:window-width="1920"
     inkscape:window-height="1022"
     id="namedview4"
     showgrid="false"
     inkscape:zoom="0.79375"
     inkscape:cx="240"
     inkscape:cy="80.246666"
     inkscape:window-x="1920"
     inkscape:window-y="28"
     inkscape:window-maximized="1"
     inkscape:current-layer="g10" /><g
     id="g10"
     inkscape:groupmode="layer"
     inkscape:label="ink_ext_XXXXXX"
     transform="matrix(1.3333333,0,0,-1.3333333,0,160.49333)"><g
       id="g12"
       transform="scale(0.1)"><path
         d="M 509.898,-0.0117188 472.809,30.5195 C 424.414,70.3281 0,427.309 0,695.676 c 0,280.101 227.883,507.984 507.984,507.984 280.102,0 507.986,-227.883 507.986,-507.984 0,-94.938 -52.865,-210.559 -157.122,-343.645 -18.848,-24.07 -53.653,-28.301 -77.715,-9.429 -24.07,18.843 -28.297,53.64 -9.438,77.711 87.368,111.535 133.555,206.757 133.555,275.363 0,219.054 -178.215,397.264 -397.266,397.264 -219.054,0 -397.265,-178.21 -397.265,-397.264 0,-167.188 258.75,-428.399 395.863,-548.528 32.914,30.313 81.965,75.704 118.961,110.864 22.16,21.062 57.199,20.176 78.266,-1.985 21.062,-22.16 20.171,-57.199 -1.989,-78.257 C 640.305,119.289 546.285,33.2695 545.344,32.4102 L 509.898,-0.0117188"
         style="fill:#4727f0;fill-opacity:1;fill-rule:nonzero;stroke:none"
         id="path14"
         inkscape:connector-curvature="0" /><path
         d="m 507.945,325.605 c -11.972,0 -24.027,3.872 -34.172,11.836 -43.085,33.872 -258.011,210.403 -258.011,360.508 0,161.133 131.093,292.231 292.222,292.231 161.125,0 292.219,-131.098 292.219,-292.231 0,-83.433 -38.617,-141.851 -100.922,-209.051 -20.789,-22.421 -55.82,-23.73 -78.23,-2.949 -22.422,20.781 -23.742,55.813 -2.961,78.235 54.051,58.285 71.398,90.789 71.398,133.765 0,100.086 -81.425,181.512 -181.504,181.512 -100.086,0 -181.504,-81.426 -181.504,-181.512 0,-71.672 126.141,-203.054 215.708,-273.457 24.039,-18.894 28.207,-53.699 9.316,-77.73 -10.918,-13.899 -27.156,-21.157 -43.559,-21.157"
         style="fill:#4727f0;fill-opacity:1;fill-rule:nonzero;stroke:none"
         id="path16"
         inkscape:connector-curvature="0" /><path
         d="m 1563.82,826.988 c 0,48.41 -31.42,76.7 -93.66,76.7 h -82.97 V 750.93 h 82.97 c 62.24,0 93.66,28.285 93.66,76.058 z m 103.11,0 c 0,-98.058 -73.55,-159.039 -191.1,-159.039 h -88.64 V 546.621 h -101.85 v 440.047 h 190.49 c 117.55,0 191.1,-60.98 191.1,-159.68"
         style="fill:#000000;fill-opacity:1;fill-rule:nonzero;stroke:none"
         id="path18"
         inkscape:connector-curvature="0" /><path
         d="m 1986.9,903.688 h -82.96 V 750.301 h 82.96 c 62.25,0 93.68,28.914 93.68,76.687 0,48.41 -31.43,76.7 -93.68,76.7 z m 95.57,-357.067 -84.87,122.578 h -93.66 V 546.621 h -101.85 v 440.047 h 190.48 c 117.56,0 191.11,-60.98 191.11,-159.68 0,-66.004 -33.32,-114.41 -90.54,-138.925 l 98.71,-141.442 h -109.38"
         style="fill:#000000;fill-opacity:1;fill-rule:nonzero;stroke:none"
         id="path20"
         inkscape:connector-curvature="0" /><path
         d="m 2326.99,986.668 h 101.85 V 546.621 h -101.85 v 440.047"
         style="fill:#000000;fill-opacity:1;fill-rule:nonzero;stroke:none"
         id="path22"
         inkscape:connector-curvature="0" /><path
         d="m 2996.5,546.621 -0.62,264.027 -129.5,-217.511 h -45.89 L 2691.62,804.988 V 546.621 h -95.57 v 440.047 h 84.25 L 2845,713.211 3007.19,986.668 h 83.61 l 1.26,-440.047 h -95.56"
         style="fill:#000000;fill-opacity:1;fill-rule:nonzero;stroke:none"
         id="path24"
         inkscape:connector-curvature="0" /><path
         d="m 3600,628.348 v -81.727 h -340.72 v 440.047 h 332.55 v -81.727 h -231.34 v -95.55 h 204.3 v -79.207 h -204.3 V 628.348 H 3600"
         style="fill:#000000;fill-opacity:1;fill-rule:nonzero;stroke:none"
         id="path26"
         inkscape:connector-curvature="0" /><path
         d="m 3537.8,318.723 h 46.98 v -77.84 c -21.74,-15.57 -51.54,-23.891 -78.92,-23.891 -59.85,0 -103.6,40.528 -103.6,97.696 0,57.167 43.75,97.707 104.67,97.707 35.17,0 63.62,-12.09 82.14,-34.356 l -33.82,-30.605 c -12.89,14.226 -27.64,20.937 -45.63,20.937 -32.21,0 -53.68,-21.211 -53.68,-53.683 0,-31.668 21.47,-53.68 53.14,-53.68 9.93,0 19.33,1.887 28.72,6.18 v 51.535"
         style="fill:#000000;fill-opacity:1;fill-rule:nonzero;stroke:none"
         id="path28"
         inkscape:connector-curvature="0" /><path
         d="m 1332.12,366.496 h -57.7 v 42.129 h 168.29 v -42.129 h -57.45 V 220.754 h -53.14 v 145.742"
         style="fill:#000000;fill-opacity:1;fill-rule:nonzero;stroke:none"
         id="path30"
         inkscape:connector-curvature="0" /><path
         d="m 1686.92,366.762 h -29.52 v -55.024 h 29.52 c 22.01,0 33.02,10.2 33.02,27.375 0,17.442 -11.01,27.649 -33.02,27.649 z m -0.54,-96.086 h -28.98 v -49.922 h -53.14 v 187.871 h 85.88 c 51.26,0 83.48,-26.57 83.48,-69.512 0,-27.644 -13.43,-48.039 -36.78,-59.316 l 40.53,-59.043 h -56.89 l -34.1,49.922"
         style="fill:#000000;fill-opacity:1;fill-rule:nonzero;stroke:none"
         id="path32"
         inkscape:connector-curvature="0" /><path
         d="m 2032.18,296.438 -24.16,60.117 -24.15,-60.117 z m 15.56,-39.18 h -79.44 l -14.76,-36.504 h -54.22 l 82.94,187.871 h 52.32 l 83.2,-187.871 h -55.27 l -14.77,36.504"
         style="fill:#000000;fill-opacity:1;fill-rule:nonzero;stroke:none"
         id="path34"
         inkscape:connector-curvature="0" /><path
         d="m 2226.96,314.688 c 0,57.167 43.75,97.707 103.34,97.707 34.62,0 62.54,-12.625 80.79,-35.43 l -33.8,-30.606 c -11.83,14.231 -26.32,22.012 -44.29,22.012 -30.88,0 -52.36,-21.476 -52.36,-53.683 0,-32.208 21.48,-53.68 52.36,-53.68 17.97,0 32.46,7.781 44.29,22.012 l 33.8,-30.594 c -18.25,-22.817 -46.17,-35.434 -80.79,-35.434 -59.59,0 -103.34,40.528 -103.34,97.696"
         style="fill:#000000;fill-opacity:1;fill-rule:nonzero;stroke:none"
         id="path36"
         inkscape:connector-curvature="0" /><path
         d="m 2637.07,288.93 -19.86,-21.203 v -46.973 h -52.61 v 187.871 h 52.61 v -78.098 l 72.73,78.098 h 58.52 l -76.77,-83.191 80.79,-104.68 h -61.73 l -53.68,68.176"
         style="fill:#000000;fill-opacity:1;fill-rule:nonzero;stroke:none"
         id="path38"
         inkscape:connector-curvature="0" /><path
         d="m 2898.92,408.625 h 53.14 V 220.754 h -53.14 v 187.871"
         style="fill:#000000;fill-opacity:1;fill-rule:nonzero;stroke:none"
         id="path40"
         inkscape:connector-curvature="0" /><path
         d="M 3296.33,408.625 V 220.754 h -43.75 l -82.94,100.105 V 220.754 h -52.07 v 187.871 h 43.75 l 82.94,-100.105 v 100.105 h 52.07"
         style="fill:#000000;fill-opacity:1;fill-rule:nonzero;stroke:none"
         id="path42"
         inkscape:connector-curvature="0" /></g></g></svg>