<?xml version="1.0" encoding="UTF-8" standalone="no"?>
<!-- Created with Inkscape (http://www.inkscape.org/) -->

<svg
   xmlns:dc="http://purl.org/dc/elements/1.1/"
   xmlns:cc="http://creativecommons.org/ns#"
   xmlns:rdf="http://www.w3.org/1999/02/22-rdf-syntax-ns#"
   xmlns:svg="http://www.w3.org/2000/svg"
   xmlns="http://www.w3.org/2000/svg"
   xmlns:sodipodi="http://sodipodi.sourceforge.net/DTD/sodipodi-0.dtd"
   xmlns:inkscape="http://www.inkscape.org/namespaces/inkscape"
   version="1.1"
   id="svg2"
   xml:space="preserve"
   width="480"
   height="160.49333"
   viewBox="0 0 480 160.49333"
   sodipodi:docname="logo--light.svg"
   inkscape:version="0.92.5 (2060ec1f9f, 2020-04-08)"><metadata
     id="metadata8"><rdf:RDF><cc:Work
         rdf:about=""><dc:format>image/svg+xml</dc:format><dc:type
           rdf:resource="http://purl.org/dc/dcmitype/StillImage" /><dc:title /></cc:Work></rdf:RDF></metadata><defs
     id="defs6" /><sodipodi:namedview
     pagecolor="#ffffff"
     bordercolor="#666666"
     borderopacity="1"
     objecttolerance="10"
     gridtolerance="10"
     guidetolerance="10"
     inkscape:pageopacity="0"
     inkscape:pageshadow="2"
     inkscape:window-width="1920"
     inkscape:window-height="1050"
     id="namedview4"
     showgrid="false"
     inkscape:zoom="0.79375"
     inkscape:cx="12.598425"
     inkscape:cy="80.246666"
     inkscape:window-x="1920"
     inkscape:window-y="0"
     inkscape:window-maximized="1"
     inkscape:current-layer="g10" /><g
     id="g10"
     inkscape:groupmode="layer"
     inkscape:label="ink_ext_XXXXXX"
     transform="matrix(1.3333333,0,0,-1.3333333,0,160.49333)"><path
       inkscape:connector-curvature="0"
       id="path14"
       style="fill:#ffffff;fill-opacity:1;fill-rule:nonzero;stroke:none;stroke-width:0.1"
       d="M 50.9898,-0.00117188 47.2809,3.05195 C 42.4414,7.03281 0,42.7309 0,69.5676 c 0,28.0101 22.7883,50.7984 50.7984,50.7984 28.0102,0 50.7986,-22.7883 50.7986,-50.7984 0,-9.4938 -5.2865,-21.0559 -15.7122,-34.3645 C 84,32.7961 80.5195,32.373 78.1133,34.2602 c -2.407,1.8843 -2.8297,5.364 -0.9438,7.7711 8.7368,11.1535 13.3555,20.6757 13.3555,27.5363 0,21.9054 -17.8215,39.7264 -39.7266,39.7264 -21.9054,0 -39.7265,-17.821 -39.7265,-39.7264 0,-16.7188 25.875,-42.8399 39.5863,-54.8528 3.2914,3.0313 8.1965,7.5704 11.8961,11.0864 2.216,2.1062 5.7199,2.0176 7.8266,-0.1985 C 72.4871,23.3867 72.398,19.8828 70.182,17.777 64.0305,11.9289 54.6285,3.32695 54.5344,3.24102 l -3.5446,-3.24219188" /><path
       inkscape:connector-curvature="0"
       id="path16"
       style="fill:#ffffff;fill-opacity:1;fill-rule:nonzero;stroke:none;stroke-width:0.1"
       d="m 50.7945,32.5605 c -1.1972,0 -2.4027,0.3872 -3.4172,1.1836 -4.3085,3.3872 -25.8011,21.0403 -25.8011,36.0508 0,16.1133 13.1093,29.2231 29.2222,29.2231 16.1125,0 29.2219,-13.1098 29.2219,-29.2231 0,-8.3433 -3.8617,-14.1851 -10.0922,-20.9051 -2.0789,-2.2421 -5.582,-2.373 -7.823,-0.2949 -2.2422,2.0781 -2.3742,5.5813 -0.2961,7.8235 5.4051,5.8285 7.1398,9.0789 7.1398,13.3765 0,10.0086 -8.1425,18.1512 -18.1504,18.1512 -10.0086,0 -18.1504,-8.1426 -18.1504,-18.1512 0,-7.1672 12.6141,-20.3054 21.5708,-27.3457 2.4039,-1.8894 2.8207,-5.3699 0.9316,-7.773 -1.0918,-1.3899 -2.7156,-2.1157 -4.3559,-2.1157" /><path
       inkscape:connector-curvature="0"
       id="path18"
       style="fill:#ffffff;fill-opacity:1;fill-rule:nonzero;stroke:none;stroke-width:0.1"
       d="m 156.382,82.6988 c 0,4.841 -3.142,7.67 -9.366,7.67 h -8.297 V 75.093 h 8.297 c 6.224,0 9.366,2.8285 9.366,7.6058 z m 10.311,0 c 0,-9.8058 -7.355,-15.9039 -19.11,-15.9039 h -8.864 V 54.6621 h -10.185 v 44.0047 h 19.049 c 11.755,0 19.11,-6.098 19.11,-15.968" /><path
       inkscape:connector-curvature="0"
       id="path20"
       style="fill:#ffffff;fill-opacity:1;fill-rule:nonzero;stroke:none;stroke-width:0.1"
       d="m 198.69,90.3688 h -8.296 V 75.0301 h 8.296 c 6.225,0 9.368,2.8914 9.368,7.6687 0,4.841 -3.143,7.67 -9.368,7.67 z m 9.557,-35.7067 -8.487,12.2578 h -9.366 V 54.6621 h -10.185 v 44.0047 h 19.048 c 11.756,0 19.111,-6.098 19.111,-15.968 0,-6.6004 -3.332,-11.441 -9.054,-13.8925 l 9.871,-14.1442 h -10.938" /><path
       inkscape:connector-curvature="0"
       id="path22"
       style="fill:#ffffff;fill-opacity:1;fill-rule:nonzero;stroke:none;stroke-width:0.1"
       d="m 232.699,98.6668 h 10.185 V 54.6621 h -10.185 v 44.0047" /><path
       inkscape:connector-curvature="0"
       id="path24"
       style="fill:#ffffff;fill-opacity:1;fill-rule:nonzero;stroke:none;stroke-width:0.1"
       d="m 299.65,54.6621 -0.062,26.4027 -12.95,-21.7511 h -4.589 L 269.162,80.4988 V 54.6621 h -9.557 v 44.0047 h 8.425 l 16.47,-27.3457 16.219,27.3457 h 8.361 l 0.126,-44.0047 h -9.556" /><path
       inkscape:connector-curvature="0"
       id="path26"
       style="fill:#ffffff;fill-opacity:1;fill-rule:nonzero;stroke:none;stroke-width:0.1"
       d="m 360,62.8348 v -8.1727 h -34.072 v 44.0047 h 33.255 v -8.1727 h -23.134 v -9.555 h 20.43 v -7.9207 h -20.43 V 62.8348 H 360" /><path
       inkscape:connector-curvature="0"
       id="path28"
       style="fill:#ffffff;fill-opacity:1;fill-rule:nonzero;stroke:none;stroke-width:0.1"
       d="m 353.78,31.8723 h 4.698 v -7.784 c -2.174,-1.557 -5.154,-2.3891 -7.892,-2.3891 -5.985,0 -10.36,4.0528 -10.36,9.7696 0,5.7167 4.375,9.7707 10.467,9.7707 3.517,0 6.362,-1.209 8.214,-3.4356 l -3.382,-3.0605 c -1.289,1.4226 -2.764,2.0937 -4.563,2.0937 -3.221,0 -5.368,-2.1211 -5.368,-5.3683 0,-3.1668 2.147,-5.368 5.314,-5.368 0.993,0 1.933,0.1887 2.872,0.618 v 5.1535" /><path
       inkscape:connector-curvature="0"
       id="path30"
       style="fill:#ffffff;fill-opacity:1;fill-rule:nonzero;stroke:none;stroke-width:0.1"
       d="m 133.212,36.6496 h -5.77 v 4.2129 h 16.829 v -4.2129 h -5.745 V 22.0754 h -5.314 v 14.5742" /><path
       inkscape:connector-curvature="0"
       id="path32"
       style="fill:#ffffff;fill-opacity:1;fill-rule:nonzero;stroke:none;stroke-width:0.1"
       d="m 168.692,36.6762 h -2.952 v -5.5024 h 2.952 c 2.201,0 3.302,1.02 3.302,2.7375 0,1.7442 -1.101,2.7649 -3.302,2.7649 z m -0.054,-9.6086 h -2.898 v -4.9922 h -5.314 v 18.7871 h 8.588 c 5.126,0 8.348,-2.657 8.348,-6.9512 0,-2.7644 -1.343,-4.8039 -3.678,-5.9316 l 4.053,-5.9043 h -5.689 l -3.41,4.9922" /><path
       inkscape:connector-curvature="0"
       id="path34"
       style="fill:#ffffff;fill-opacity:1;fill-rule:nonzero;stroke:none;stroke-width:0.1"
       d="m 203.218,29.6438 -2.416,6.0117 -2.415,-6.0117 z m 1.556,-3.918 h -7.944 l -1.476,-3.6504 h -5.422 l 8.294,18.7871 h 5.232 l 8.32,-18.7871 h -5.527 l -1.477,3.6504" /><path
       inkscape:connector-curvature="0"
       id="path36"
       style="fill:#ffffff;fill-opacity:1;fill-rule:nonzero;stroke:none;stroke-width:0.1"
       d="m 222.696,31.4688 c 0,5.7167 4.375,9.7707 10.334,9.7707 3.462,0 6.254,-1.2625 8.079,-3.543 l -3.38,-3.0606 c -1.183,1.4231 -2.632,2.2012 -4.429,2.2012 -3.088,0 -5.236,-2.1476 -5.236,-5.3683 0,-3.2208 2.148,-5.368 5.236,-5.368 1.797,0 3.246,0.7781 4.429,2.2012 l 3.38,-3.0594 c -1.825,-2.2817 -4.617,-3.5434 -8.079,-3.5434 -5.959,0 -10.334,4.0528 -10.334,9.7696" /><path
       inkscape:connector-curvature="0"
       id="path38"
       style="fill:#ffffff;fill-opacity:1;fill-rule:nonzero;stroke:none;stroke-width:0.1"
       d="m 263.707,28.893 -1.986,-2.1203 v -4.6973 h -5.261 v 18.7871 h 5.261 v -7.8098 l 7.273,7.8098 h 5.852 l -7.677,-8.3191 8.079,-10.468 h -6.173 l -5.368,6.8176" /><path
       inkscape:connector-curvature="0"
       id="path40"
       style="fill:#ffffff;fill-opacity:1;fill-rule:nonzero;stroke:none;stroke-width:0.1"
       d="m 289.892,40.8625 h 5.314 V 22.0754 h -5.314 v 18.7871" /><path
       inkscape:connector-curvature="0"
       id="path42"
       style="fill:#ffffff;fill-opacity:1;fill-rule:nonzero;stroke:none;stroke-width:0.1"
       d="M 329.633,40.8625 V 22.0754 h -4.375 l -8.294,10.0105 V 22.0754 h -5.207 v 18.7871 h 4.375 l 8.294,-10.0105 v 10.0105 h 5.207" /></g></svg>